<svg width="288" height="288" viewBox="0 0 288 288" fill="none" xmlns="http://www.w3.org/2000/svg">
<rect x="9" y="9" width="270" height="270" rx="53" fill="black"/>
<path d="M65 144H79C90.3333 144 96 149.667 96 161V168C96 184 104 192 120 192H168C184 192 192 184 192 168V120C192 104 184 96 168 96H113C101.667 96 96 90.3333 96 79V65C96 53.6667 101.667 48 113 48H175C186.333 48 192 53.6667 192 65V72C192 88 200 96 216 96H223C234.333 96 240 101.667 240 113V175C240 186.333 234.333 192 223 192H216C200 192 192 200 192 216V223C192 234.333 186.333 240 175 240H113C101.667 240 96 234.333 96 223V216C96 200 88 192 72 192H65C53.6667 192 48 186.333 48 175V161C48 149.667 53.6667 144 65 144ZM96 168C96 184 104 192 120 192L96 216C96 200 88 192 72 192L96 168ZM192 168L216 192C200 192 192 200 192 216L168 192C184 192 192 184 192 168ZM192 72C192 88 200 96 216 96L192 120C192 104 184 96 168 96L192 72Z" fill="white"/>
</svg>
