<?xml version="1.0" encoding="UTF-8"?>
<svg xmlns="http://www.w3.org/2000/svg" viewBox="0 0 2304 576">
  <path d="M 396 96 L 420 96 Q 432 96 432 108 L 432 180 Q 432 192 420 192 L 396 192 Q 384 192 384 180 L 384 108 Q 384 96 396 96 Z M 384 60 L 384 84 Q 384 96 372 96 L 200 96 Q 192 96 192 104 L 192 424 Q 192 432 200 432 L 376 432 Q 384 432 384 424 L 384 296 Q 384 288 376 288 L 300 288 Q 288 288 288 276 L 288 252 Q 288 240 300 240 L 372 240 Q 384 240 384 252 L 384 280 Q 384 288 392 288 L 420 288 Q 432 288 432 300 L 432 420 Q 432 432 420 432 L 392 432 Q 384 432 384 440 L 384 468 Q 384 480 372 480 L 204 480 Q 192 480 192 468 L 192 440 Q 192 432 184 432 L 156 432 Q 144 432 144 420 L 144 108 Q 144 96 156 96 L 184 96 Q 192 96 192 88 L 192 60 Q 192 48 204 48 L 372 48 Q 384 48 384 60 Z M 492 192 L 520 192 Q 528 192 528 184 L 528 156 Q 528 144 540 144 L 708 144 Q 720 144 720 156 L 720 180 Q 720 192 708 192 L 536 192 Q 528 192 528 200 L 528 280 Q 528 288 536 288 L 612 288 Q 624 288 624 300 L 624 324 Q 624 336 612 336 L 536 336 Q 528 336 528 344 L 528 424 Q 528 432 536 432 L 708 432 Q 720 432 720 444 L 720 468 Q 720 480 708 480 L 540 480 Q 528 480 528 468 L 528 440 Q 528 432 520 432 L 492 432 Q 480 432 480 420 L 480 348 Q 480 336 492 336 L 520 336 Q 528 336 528 328 L 528 296 Q 528 288 520 288 L 492 288 Q 480 288 480 276 L 480 204 Q 480 192 492 192 Z M 804 480 L 780 480 Q 768 480 768 468 L 768 300 Q 768 288 780 288 L 808 288 Q 816 288 816 280 L 816 248 Q 816 240 808 240 L 780 240 Q 768 240 768 228 L 768 156 Q 768 144 780 144 L 804 144 Q 816 144 816 156 L 816 232 Q 816 240 824 240 L 852 240 Q 864 240 864 252 L 864 280 Q 864 288 872 288 L 900 288 Q 912 288 912 300 L 912 328 Q 912 336 920 336 L 952 336 Q 960 336 960 328 L 960 156 Q 960 144 972 144 L 996 144 Q 1008 144 1008 156 L 1008 324 Q 1008 336 996 336 L 968 336 Q 960 336 960 344 L 960 376 Q 960 384 968 384 L 996 384 Q 1008 384 1008 396 L 1008 468 Q 1008 480 996 480 L 972 480 Q 960 480 960 468 L 960 392 Q 960 384 952 384 L 924 384 Q 912 384 912 372 L 912 344 Q 912 336 904 336 L 876 336 Q 864 336 864 324 L 864 296 Q 864 288 856 288 L 824 288 Q 816 288 816 296 L 816 468 Q 816 480 804 480 Z M 384 84 Q 384 96 396 96 L 384 108 Q 384 96 372 96 Z M 192 84 L 204 96 Q 192 96 192 108 L 180 96 Q 192 96 192 84 Z M 192 420 Q 192 432 204 432 L 192 444 Q 192 432 180 432 Z M 384 420 L 396 432 Q 384 432 384 444 L 372 432 Q 384 432 384 420 Z M 384 276 Q 384 288 396 288 L 384 300 Q 384 288 372 288 Z M 528 276 Q 528 288 540 288 L 528 300 Q 528 288 516 288 Z M 528 180 L 540 192 Q 528 192 528 204 L 516 192 Q 528 192 528 180 Z M 528 324 L 540 336 Q 528 336 528 348 L 516 336 Q 528 336 528 324 Z M 528 420 Q 528 432 540 432 L 528 444 Q 528 432 516 432 Z M 816 228 Q 816 240 828 240 L 816 252 Q 816 240 804 240 Z M 864 276 Q 864 288 876 288 L 864 300 Q 864 288 852 288 Z M 816 276 L 828 288 Q 816 288 816 300 L 804 288 Q 816 288 816 276 Z M 912 324 Q 912 336 924 336 L 912 348 Q 912 336 900 336 Z M 960 372 Q 960 384 972 384 L 960 396 Q 960 384 948 384 Z M 960 324 L 972 336 Q 960 336 960 348 L 948 336 Q 960 336 960 324 Z" fill="#2457ff"/>
  <path d="M 1308 96 L 1332 96 Q 1344 96 1344 108 L 1344 132 Q 1344 144 1332 144 L 1308 144 Q 1296 144 1296 132 L 1296 108 Q 1296 96 1308 96 Z M 1296 60 L 1296 84 Q 1296 96 1284 96 L 1112 96 Q 1104 96 1104 104 L 1104 232 Q 1104 240 1112 240 L 1284 240 Q 1296 240 1296 252 L 1296 280 Q 1296 288 1304 288 L 1332 288 Q 1344 288 1344 300 L 1344 420 Q 1344 432 1332 432 L 1304 432 Q 1296 432 1296 440 L 1296 468 Q 1296 480 1284 480 L 1116 480 Q 1104 480 1104 468 L 1104 440 Q 1104 432 1096 432 L 1068 432 Q 1056 432 1056 420 L 1056 396 Q 1056 384 1068 384 L 1092 384 Q 1104 384 1104 396 L 1104 424 Q 1104 432 1112 432 L 1288 432 Q 1296 432 1296 424 L 1296 296 Q 1296 288 1288 288 L 1116 288 Q 1104 288 1104 276 L 1104 248 Q 1104 240 1096 240 L 1068 240 Q 1056 240 1056 228 L 1056 108 Q 1056 96 1068 96 L 1096 96 Q 1104 96 1104 88 L 1104 60 Q 1104 48 1116 48 L 1284 48 Q 1296 48 1296 60 Z M 1404 192 L 1432 192 Q 1440 192 1440 184 L 1440 156 Q 1440 144 1452 144 L 1572 144 Q 1584 144 1584 156 L 1584 184 Q 1584 192 1592 192 L 1620 192 Q 1632 192 1632 204 L 1632 420 Q 1632 432 1620 432 L 1592 432 Q 1584 432 1584 440 L 1584 468 Q 1584 480 1572 480 L 1452 480 Q 1440 480 1440 468 L 1440 440 Q 1440 432 1432 432 L 1404 432 Q 1392 432 1392 420 L 1392 204 Q 1392 192 1404 192 Z M 1440 200 L 1440 424 Q 1440 432 1448 432 L 1576 432 Q 1584 432 1584 424 L 1584 200 Q 1584 192 1576 192 L 1448 192 Q 1440 192 1440 200 Z M 1716 480 L 1692 480 Q 1680 480 1680 468 L 1680 348 Q 1680 336 1692 336 L 1720 336 Q 1728 336 1728 328 L 1728 296 Q 1728 288 1720 288 L 1692 288 Q 1680 288 1680 276 L 1680 204 Q 1680 192 1692 192 L 1720 192 Q 1728 192 1728 184 L 1728 156 Q 1728 144 1740 144 L 1860 144 Q 1872 144 1872 156 L 1872 184 Q 1872 192 1880 192 L 1908 192 Q 1920 192 1920 204 L 1920 228 Q 1920 240 1908 240 L 1884 240 Q 1872 240 1872 228 L 1872 200 Q 1872 192 1864 192 L 1736 192 Q 1728 192 1728 200 L 1728 280 Q 1728 288 1736 288 L 1812 288 Q 1824 288 1824 300 L 1824 324 Q 1824 336 1812 336 L 1736 336 Q 1728 336 1728 344 L 1728 468 Q 1728 480 1716 480 Z M 1980 144 L 2052 144 Q 2064 144 2064 156 L 2064 184 Q 2064 192 2072 192 L 2104 192 Q 2112 192 2112 184 L 2112 156 Q 2112 144 2124 144 L 2196 144 Q 2208 144 2208 156 L 2208 180 Q 2208 192 2196 192 L 2120 192 Q 2112 192 2112 200 L 2112 468 Q 2112 480 2100 480 L 2076 480 Q 2064 480 2064 468 L 2064 200 Q 2064 192 2056 192 L 1980 192 Q 1968 192 1968 180 L 1968 156 Q 1968 144 1980 144 Z M 1296 84 Q 1296 96 1308 96 L 1296 108 Q 1296 96 1284 96 Z M 1104 84 L 1116 96 Q 1104 96 1104 108 L 1092 96 Q 1104 96 1104 84 Z M 1104 228 Q 1104 240 1116 240 L 1104 252 Q 1104 240 1092 240 Z M 1296 276 Q 1296 288 1308 288 L 1296 300 Q 1296 288 1284 288 Z M 1296 420 L 1308 432 Q 1296 432 1296 444 L 1284 432 Q 1296 432 1296 420 Z M 1104 420 Q 1104 432 1116 432 L 1104 444 Q 1104 432 1092 432 Z M 1440 420 Q 1440 432 1452 432 L 1440 444 Q 1440 432 1428 432 Z M 1584 420 L 1596 432 Q 1584 432 1584 444 L 1572 432 Q 1584 432 1584 420 Z M 1584 180 Q 1584 192 1596 192 L 1584 204 Q 1584 192 1572 192 Z M 1440 180 L 1452 192 Q 1440 192 1440 204 L 1428 192 Q 1440 192 1440 180 Z M 1728 324 L 1740 336 Q 1728 336 1728 348 L 1716 336 Q 1728 336 1728 324 Z M 1728 276 Q 1728 288 1740 288 L 1728 300 Q 1728 288 1716 288 Z M 1728 180 L 1740 192 Q 1728 192 1728 204 L 1716 192 Q 1728 192 1728 180 Z M 1872 180 Q 1872 192 1884 192 L 1872 204 Q 1872 192 1860 192 Z M 2064 180 Q 2064 192 2076 192 L 2064 204 Q 2064 192 2052 192 Z M 2112 180 L 2124 192 Q 2112 192 2112 204 L 2100 192 Q 2112 192 2112 180 Z" fill="#23231f"/>
</svg>